<svg xmlns="http://www.w3.org/2000/svg" viewBox="0 0 32 32" width="32" height="32">
  <!-- Mühendis Dayanışması Favicon -->
  <circle cx="16" cy="16" r="15" fill="#1a472a" stroke="#ffffff" stroke-width="2"/>
  
  <!-- Ana dişli -->
  <g transform="translate(16,16)">
    <!-- Dişli dış çember -->
    <circle r="10" fill="#ffffff"/>
    <circle r="8" fill="#1a472a"/>
    
    <!-- Dişli dişleri -->
    <g fill="#ffffff">
      <rect x="-1" y="-12" width="2" height="4"/>
      <rect x="-1" y="8" width="2" height="4"/>
      <rect x="-12" y="-1" width="4" height="2"/>
      <rect x="8" y="-1" width="4" height="2"/>
      
      <!-- Çapraz dişler -->
      <rect x="-8.5" y="-8.5" width="2" height="3" transform="rotate(45)"/>
      <rect x="6.5" y="-8.5" width="2" height="3" transform="rotate(45)"/>
      <rect x="-8.5" y="5.5" width="2" height="3" transform="rotate(45)"/>
      <rect x="6.5" y="5.5" width="2" height="3" transform="rotate(45)"/>
    </g>
    
    <!-- Merkez delik -->
    <circle r="3" fill="#1a472a"/>
  </g>
  
  <!-- Dayanışma simgesi - iki el birleşiyor -->
  <g transform="translate(16,26)" fill="#ffffff">
    <path d="M-4,-2 Q-6,-4 -8,-2 Q-8,0 -6,1 L-2,1 Q0,0 0,-1" stroke="#1a472a" stroke-width="0.5"/>
    <path d="M4,-2 Q6,-4 8,-2 Q8,0 6,1 L2,1 Q0,0 0,-1" stroke="#1a472a" stroke-width="0.5"/>
  </g>
</svg>
